<svg xmlns="http://www.w3.org/2000/svg" width="512" height="512" style=""><rect id="backgroundrect" width="100%" height="100%" x="0" y="0" fill="none" stroke="none"/><g class="currentLayer" style=""><title>Layer 1</title><path d="M232,256a88,88,0,1,0-88-88A88.1,88.1,0,0,0,232,256Zm0-160a72,72,0,1,1-72,72A72.081,72.081,0,0,1,232,96Z" id="svg_1" class="" fill="#ffffff" fill-opacity="1"/><path d="M210.343,205.657A8,8,0,0,0,216,208c.089,0,.178,0,.267,0a7.993,7.993,0,0,0,5.754-2.727l56-64a8,8,0,1,0-12.041-10.536L215.61,188.3l-17.953-17.954a8,8,0,0,0-11.314,11.314Z" id="svg_2" class="" fill="#ffffff" fill-opacity="1"/><path d="M482.82825,161.07575 l-23.029,-23.029 a36.974,36.974 0 0 0 -52.286,0 L397.65625,147.90375 V95.21875 h56 a8,8 0 0 0 8,-8 V55.21875 a40.045,40.045 0 0 0 -40,-40 H101.65625 A40.045,40.045 0 0 0 61.65625,55.21875 V351.21875 H21.65625 a8,8 0 0 0 -8,8 V471.21875 a8,8 0 0 0 8,8 H59.76725 l1.8890000000000002,0.9440000000000002 V487.21875 a8,8 0 0 0 8,8 H389.65625 a8,8 0 0 0 8,-8 V298.53375 l85.172,-85.173 a36.972,36.972 0 0 0 0,-52.285 zM397.65625,55.21875 a24,24 0 0 1 48,0 V79.21875 H397.65625 zm0.6850000000000004,132 L317.65625,267.90375 L308.97025,259.21875 L389.65625,178.53375 zM284.31025,306.55875 l4.5920000000000005,-16.837 a56.1,56.1 0 0 1 9.169,-18.774 l51.855,51.856 a56.081,56.081 0 0 1 -18.773,9.169 l-16.837,4.5920000000000005 zM296.53725,341.41875 l-23.48,6.4 l6.4,-23.48 zM341.65625,291.90375 L328.97025,279.21875 L409.65625,198.53375 L422.34125,211.21875 zM77.65625,55.21875 a24.028,24.028 0 0 1 24,-24 H389.67525 A39.794,39.794 0 0 0 381.65625,55.21875 V163.90375 l-89.639,89.639 a72.134,72.134 0 0 0 -18.551,31.969 L255.54625,351.21875 H197.65625 c-0.3590000000000001,0 -0.7150000000000002,0.012000000000000004 -1.07,0.027000000000000014 l21.11,-31.666 a40,40 0 0 0 -12.7,-56.488 l-11.222,-6.7330000000000005 A8,8 0 0 0 183.25625,258.41875 l-47.178,62.9 L91.23425,351.21875 H77.65625 zM261.65625,383.21875 H197.65625 a8,8 0 0 1 0,-16 h64 a8,8 0 0 1 0,16 zm8,24 a8.009,8.009 0 0 1 -8,8 H197.65625 a8,8 0 0 1 0,-16 h64 A8.009,8.009 0 0 1 269.65625,407.21875 zM163.78725,455.21875 a23.943,23.943 0 0 0 -4.755,24 H101.21025 a24.127,24.127 0 0 1 -10.733,-2.533 L65.23425,464.06375 A7.994,7.994 0 0 0 61.65625,463.21875 H29.65625 V367.21875 H93.65625 a8,8 0 0 0 4.437,-1.344 l48,-32 A8,8 0 0 0 148.05625,332.01875 l43.671,-58.228 l5.035,3.022 a24,24 0 0 1 7.622,33.892 l-29.384,44.076 A8,8 0 0 0 173.65625,359.21875 a56.063,56.063 0 0 1 -56,56 a8,8 0 0 0 0,16 a71.885,71.885 0 0 0 56.2,-27.071 A24.133,24.133 0 0 0 173.65625,407.21875 a23.857,23.857 0 0 0 1.7000000000000002,8.846 A23.978,23.978 0 0 0 163.78725,455.21875 zM229.65625,479.21875 H181.65625 a8,8 0 0 1 0,-16 h48 a8,8 0 0 1 0,16 zm16,-32 H181.65625 a8,8 0 0 1 0,-16 h64 a8,8 0 0 1 0,16 zm136,32 H252.28025 a23.923000000000002,23.923000000000002 0 0 0 -0.3210000000000001,-16.846 a23.977,23.977 0 0 0 16,-32 A23.978,23.978 0 0 0 279.52525,391.21875 a23.936,23.936 0 0 0 2.177,-29.175 l53.662,-14.635 a72.136,72.136 0 0 0 31.968,-18.551 L381.65625,314.53375 zM361.65625,311.90375 L352.97025,303.21875 L433.65625,222.53375 L442.34125,231.21875 zm92,-92 L400.96925,167.21875 L405.65625,162.53275 L458.34225,215.21875 zm17.857,-17.858 L469.65625,203.90375 L416.97025,151.21875 l1.858,-1.8570000000000002 a20.967,20.967 0 0 1 29.656,0 l23.029,23.029 a20.967,20.967 0 0 1 0,29.656 z" id="svg_3" class="" fill-opacity="1" fill="#ffffff"/></g></svg>