<?xml version="1.0" ?><!DOCTYPE svg  PUBLIC '-//W3C//DTD SVG 1.1//EN'  'http://www.w3.org/Graphics/SVG/1.1/DTD/svg11.dtd'><svg height="8.4666mm" style="shape-rendering:geometricPrecision; text-rendering:geometricPrecision; image-rendering:optimizeQuality; fill-rule:evenodd; clip-rule:evenodd" version="1.1" viewBox="0 0 846.66 846.66" width="8.4666mm" xml:space="preserve" xmlns="http://www.w3.org/2000/svg" xmlns:xlink="http://www.w3.org/1999/xlink"><defs><style type="text/css">
   <![CDATA[
    .fil0 {fill:black;fill-rule:nonzero}
   ]]>
  </style></defs><g id="Layer_x0020_1"><path class="fil0" d="M361.91 468.44l-127.68 -9.62 -74.19 99.9c88.4,78.29 176.79,156.57 265.19,234.85l22.79 -13.25 -58.53 -64.29c-18.38,-20.2 12.37,-48.16 30.74,-27.97l64.56 70.9 39.29 -22.82 -59.15 -60.08c-19.15,-19.47 10.46,-48.58 29.6,-29.11l66.61 67.65 46.6 -27.07c-50.11,-43.81 -100.22,-87.61 -150.33,-131.42l-62.67 56.61c-7.66,6.93 -19.09,7.07 -26.89,0.78l-61.12 -46.45c-9.73,-7.38 -10.77,-20.63 -3.22,-29.98l58.4 -68.63zm-142.74 -263.4c-16.67,-21.59 16.19,-46.96 32.86,-25.38l35.05 45.57 98.66 -108.31c18.37,-20.19 49.11,7.78 30.74,27.98l-115.37 126.62c-8.67,9.49 -23.86,8.98 -31.79,-1.28l-50.15 -65.2zm99.18 -198.17c103.48,0 187.36,83.88 187.36,187.36 0,103.48 -83.88,187.36 -187.36,187.36 -103.47,0 -187.36,-83.88 -187.36,-187.36 0,-103.48 83.89,-187.36 187.36,-187.36zm0 41.64c-80.48,0 -145.72,65.24 -145.72,145.72 0,80.49 65.24,145.72 145.72,145.72 80.49,0 145.73,-65.24 145.73,-145.72 0,-80.48 -65.24,-145.72 -145.73,-145.72zm275.28 309.27c-27.39,0 -27.39,-41.64 0,-41.64l97.8 0c27.38,0 27.38,41.64 0,41.64l-97.8 0zm-15.95 -63.43c-26.43,7.06 -37.16,-33.11 -10.74,-40.17l127 -34.03c26.42,-7.06 37.15,33.12 10.73,40.17l-126.99 34.03zm-144.57 542.65c-7.51,4.35 -17.28,3.65 -24.14,-2.42l-14.87 -13.17 -212.47 -77.71c-9.92,-3.59 -15.68,-14.19 -13.02,-24.62l20.36 -79.33 -70.09 -62.07c-8.52,-6.97 -10.14,-19.48 -3.52,-28.42l91.59 -123.32c3.99,-6.18 11.15,-10.04 19.01,-9.45l178.08 13.41 204.93 -21.95c7.56,-0.8 14.6,2.56 18.85,8.24l102.91 126.18c6.99,8.59 5.96,21.09 -2.13,28.45l-93.59 85.43 21.03 18.38c11.41,8.98 10.36,26.88 -2.44,34.3 -73.49,42.69 -146.98,85.4 -220.49,128.07zm-209.26 -166.36l-10.4 40.51 95.62 34.96 -85.22 -75.47zm379.67 -41.92l82.6 -75.37 -83.92 -102.89 -187.53 20.09 -65.4 76.77 30.42 23.13 62.94 -56.85c7.66,-7.58 20,-8.05 28.23,-0.85l132.66 115.97z"/></g></svg>